PathFileType	4	(X/Y/Z)	/Users/niels/Desktop/University/Third Semester/Perception and Action/Exam/Gymnastics Motion Tracking/Code for Gym Tracking/Analyzed Data/Webcam_Backflip/id5_2_trajectory_Sports2D/id5_2_trajectory_Sports2D_px_person00.trc
DataRate	CameraRate	NumFrames	NumMarkers	Units	OrigDataRate	OrigDataStartFrame	OrigNumFrames
29.770992366412216	29.770992366412216	7	22	m	29.770992366412216	0	131
Frame#	Time	Hip			RHip			RKnee			RAnkle			RBigToe			RSmallToe			RHeel			LHip			LKnee			LAnkle			LBigToe			LSmallToe			LHeel			Neck			Head			Nose			RShoulder			RElbow			RWrist			LShoulder			LElbow			LWrist		
		X1	Y1	Z1	X2	Y2	Z2	X3	Y3	Z3	X4	Y4	Z4	X5	Y5	Z5	X6	Y6	Z6	X7	Y7	Z7	X8	Y8	Z8	X9	Y9	Z9	X10	Y10	Z10	X11	Y11	Z11	X12	Y12	Z12	X13	Y13	Z13	X14	Y14	Z14	X15	Y15	Z15	X16	Y16	Z16	X17	Y17	Z17	X18	Y18	Z18	X19	Y19	Z19	X20	Y20	Z20	X21	Y21	Z21	X22	Y22	Z22
0	0.0	0.9055307384326798	-0.6233603750881479	0.0	0.8947146756305493	-0.6233563546936244	0.0	0.9962066017887763	-0.7015007688773197	0.0	0.9407976380036706	-0.8162237010129164	0.0	0.9866934715158441	-0.8351629464087552	0.0	0.9758849485314975	-0.8419072204079021	0.0	0.9259252028536159	-0.8337648598867031	0.0	0.9149931151539424	-0.620658236766791	0.0	1.0002331823532513	-0.6920545845436695	0.0	0.9502334065464054	-0.7959866429889793	0.0	0.9988056840164637	-0.8257195852445431	0.0	0.9933920845319488	-0.8216697519230671	0.0	0.9353663382520708	-0.8175838803194717	0.0	1.0013153332629554	-0.495192410088268	0.0	1.0661074451185057	-0.4358916834143354	0.0	1.0565992143891298	-0.469580655855451	0.0	0.9837553962843257	-0.504661474773854	0.0	0.8933312187161243	-0.5128205923083132	0.0	0.8096180236615961	-0.5316954663231658	0.0	0.9810702256320039	-0.5006058736689276	0.0	0.9055251876113223	-0.5263642719929027	0.0	0.8529494214422596	-0.5709283316632274	0.0
1	0.033589743589743586	0.9063229795536037	-0.6419327376548666	0.0	0.8969853772044939	-0.641988560562614	0.0	0.9941630581209909	-0.7241587280870853	0.0	0.9391093747209279	-0.8391181735094786	0.0	0.9868202860658062	-0.8576108070990045	0.0	0.9748175517401746	-0.8633819255734754	0.0	0.9246304789763101	-0.8549241197674987	0.0	0.917097473013556	-0.6388832861280102	0.0	0.9983424109773548	-0.7150178570670812	0.0	0.9482124241182194	-0.8210338927290874	0.0	0.9979931625031369	-0.8478998396158923	0.0	0.992180497833734	-0.8439740778591626	0.0	0.9304519297610824	-0.8407274196842058	0.0	0.9962642990702648	-0.5052903534335679	0.0	1.0508201023571102	-0.4411782768827206	0.0	1.0479883076692593	-0.4753509623823875	0.0	0.9787233480769316	-0.5190393235312274	0.0	0.9019407104796467	-0.5500787863592184	0.0	0.8405771340140313	-0.5879129360795203	0.0	0.9799580641090404	-0.5149936716991359	0.0	0.918536388121128	-0.557910580233172	0.0	0.8811807712892556	-0.6076923030167544	0.0
2	0.06717948717948717	0.907451589282167	-0.660954607855608	0.0	0.8996147708008179	-0.66131062729856	0.0	0.9913075518710779	-0.7478289245733936	0.0	0.9376419162320756	-0.8633633866457628	0.0	0.9869855737702548	-0.8807671707393185	0.0	0.9740628953323934	-0.8858181106721691	0.0	0.9235511737903286	-0.8775174687764357	0.0	0.9191824101172683	-0.657951623731337	0.0	0.9953622475526172	-0.7394009551600339	0.0	0.945910194553559	-0.8477296169701535	0.0	0.9974863528749909	-0.8708635864081995	0.0	0.9906404254313617	-0.8671038276543925	0.0	0.925741484145111	-0.8647829021559019	0.0	0.990276544612607	-0.5150385754371489	0.0	1.034725784623541	-0.4463774718120923	0.0	1.0382336553527038	-0.4810302831000595	0.0	0.9728854835686576	-0.5326505299849522	0.0	0.9136183549227156	-0.5842842193942321	0.0	0.8768497894478466	-0.6366096842240269	0.0	0.978027609087277	-0.528901525312951	0.0	0.9346711422445542	-0.5866169398874131	0.0	0.9162189651507153	-0.6398230500995195	0.0
3	0.10076923076923075	0.9093029133545187	-0.6799140545709116	0.0	0.9027922889541808	-0.6808801128241387	0.0	0.9871075902475065	-0.7723488354700105	0.0	0.936393939758306	-0.8887642999227865	0.0	0.9871093926649811	-0.9042080228197368	0.0	0.9735960183730233	-0.9089457034712802	0.0	0.9227016942858133	-0.9014782902047334	0.0	0.9215096407976185	-0.6774933599047654	0.0	0.9908505575342312	-0.7650462428095846	0.0	0.9434092575272693	-0.8757414764176888	0.0	0.9971885380152398	-0.8940890184362638	0.0	0.988446398621559	-0.8906034974650474	0.0	0.9217292676658567	-0.8894165536198287	0.0	0.9827874407545704	-0.5239353129896684	0.0	1.0170485814103067	-0.45113366006956745	0.0	1.0266021928372324	-0.4861653844326975	0.0	0.9658484179681324	-0.5445144050025622	0.0	0.9297623421484451	-0.6113798453659722	0.0	0.9203657888139495	-0.6698718085877778	0.0	0.9748977161802767	-0.5414800323219252	0.0	0.9547577929531678	-0.6085770483548986	0.0	0.959152857362241	-0.6607216868897243	0.0
4	0.13435897435897434	0.9122803321722084	-0.6972282044699829	0.0	0.90660791696329	-0.6989708876089453	0.0	0.981377083133945	-0.7960843632105165	0.0	0.9352282127234188	-0.9133406686673109	0.0	0.9870730933900919	-0.9262386863770549	0.0	0.9731554243462642	-0.9311204194201043	0.0	0.9219357006627422	-0.9250629421091495	0.0	0.9245311238841264	-0.6957624969404946	0.0	0.9850862179148193	-0.7900005929879358	0.0	0.9410871885130638	-0.9026088019861291	0.0	0.9966516241148279	-0.9158939502486017	0.0	0.9854642333429258	-0.9128117562334417	0.0	0.9188545727710595	-0.9130572949588223	0.0	0.9738180417572726	-0.5312244468506907	0.0	0.9973185122292665	-0.4548035859769719	0.0	1.0130465965635855	-0.48992018381137775	0.0	0.9578732540954071	-0.5534397967378605	0.0	0.9493522657196681	-0.6268018135011293	0.0	0.9680958458331805	-0.6807512543286436	0.0	0.9706551299320927	-0.551364431090404	0.0	0.9764704583035078	-0.619438677356721	0.0	1.004249247422197	-0.6634392406307342	0.0
5	0.16794871794871793	0.9167539483408625	-0.7103015718093358	0.0	0.9113359429961487	-0.7127262612097165	0.0	0.9744964269289317	-0.8161216856292371	0.0	0.9341353403966645	-0.9339659879191982	0.0	0.9865643050183626	-0.9444930743510863	0.0	0.9723372064682548	-0.9498386674068923	0.0	0.9211705336543202	-0.9453841456301919	0.0	0.9287159831928843	-0.7098324495994817	0.0	0.9788505164835833	-0.8110512012716603	0.0	0.9393722721369798	-0.9248675260654394	0.0	0.995473607622493	-0.9342302958163031	0.0	0.9819117380281842	-0.931561906817447	0.0	0.9173124167727126	-0.9332845540768353	0.0	0.963771493844238	-0.5355927993216983	0.0	0.9754294667842723	-0.45650962115308563	0.0	0.997905803082148	-0.4910422797464508	0.0	0.9496029151746775	-0.5578220656638015	0.0	0.9690922956722303	-0.6267161465480565	0.0	1.0125578856717254	-0.6655980385434082	0.0	0.9654578317978998	-0.5566016560697247	0.0	0.9953589203733486	-0.6160866118116903	0.0	1.04235495150255	-0.6443379787281461	0.0
6	0.2015384615384615	0.9228893641157487	-0.7160270781047899	0.0	0.9174258625028568	-0.7188217703123182	0.0	0.9675307918528298	-0.8290280037256947	0.0	0.9333514550977388	-0.9474302394901927	0.0	0.9850216158571925	-0.9567987897425954	0.0	0.9707286078243359	-0.9625614561504758	0.0	0.9205913825068766	-0.9592677224970583	0.0	0.9343087813461496	-0.716300154826366	0.0	0.9731085742723916	-0.8246912653655325	0.0	0.9385617526320761	-0.9393639419310732	0.0	0.993552336720935	-0.9471560308001663	0.0	0.9782383735821588	-0.9446983361474371	0.0	0.9171937777786523	-0.9473088942218763	0.0	0.9530260218146143	-0.5352854905238073	0.0	0.9516006907932184	-0.45533001444098226	0.0	0.9814601992359304	-0.4880386954856578	0.0	0.941499450519762	-0.5558279637092063	0.0	0.9845383852211685	-0.6094914580396728	0.0	1.0447389942969885	-0.6260316516519729	0.0	0.9592923816596288	-0.5551826895788371	0.0	1.007318056425112	-0.5982916485118343	0.0	1.065767538801314	-0.605615633794344	0.0
